{"title":"Days.Of.Grace.[Dias.de.Gracia].2011.DVDRip.XviD.HORiZON-ArtSubs","uid":8200476,"size":1758064008,"categoryP":"video","categoryS":"movies","magnet":"?xt=urn:btih:60adc799426e257fb0820b517494e413fc203da8&amp;dn=Days.Of.Grace.%5BDias.de.Gracia%5D.2011.DVDRip.XviD.HORiZON-ArtSubs&amp;tr=udp%3A%2F%2Ftracker.openbittorrent.com%3A80&amp;tr=udp%3A%2F%2Fopen.demonii.com%3A1337&amp;tr=udp%3A%2F%2Ftracker.coppersurfer.tk%3A6969&amp;tr=udp%3A%2F%2Fexodus.desync.com%3A6969","seeders":17,"leechers":3,"uploader":"lletaif","files":3,"time":1362002602,"description":"Title:\nDias de Gracia Aka Days Of Grace\n\nCountry:\nMexico/2011\n\nLanguage:\nSpanish\n\nSubtitle:\nSwedish, Danish\n\nDirector:\nEverardo Valerio Gout\n\nWriters:\nEverardo Valerio Gout, David Rutsala (additional writing)\n\nStars:\nDolores Heredia, Paulina Gaitan, Carlos Bardem\n\nSynopsis:\nMexico City. 2002, 2006, 2010. A cop. A hostage. A wife. Corruption, violence, vengeance. Three destinies, during 30 days, during three Soccer World Cups. Three ways to fight in order to survive. \n\nTrivia:\nWin 13 Ariel Awards and Official Selection Cannes Film Festival 2011\n\nImdb: &lt;a href=&quot;\nhttp://www.imdb.com/title/tt1450320&quot; rel=&quot;nofollow&quot; target=&quot;_NEW&quot;&gt;\nhttp://www.imdb.com/title/tt1450320&lt;/a&gt;\n\nTrailer: &lt;a href=&quot;\nhttp://www.movieplayer.it/video/dias-de-gracia-trailer_7922/&quot; rel=&quot;nofollow&quot; target=&quot;_NEW&quot;&gt;\nhttp://www.movieplayer.it/video/dias-de-gracia-trailer_7922/&lt;/a&gt;\n\nMedia Info:\n\nGeneral\nComplete name                            : Days.Of.Grace.[Dias.de.Gracia].2011.DVDRip.XviD.HORiZON-ArtSubs\nFormat                                   : AVI\nFormat/Info                              : Audio Video Interleave\nFormat profile                           : OpenDML\nFile size                                : 1.62 GiB\nDuration                                 : 2h 6mn\nOverall bit rate                         : 1 842 Kbps\nWriting application                      : Lavf52.94.0\n\nVideo\nID                                       : 0\nFormat                                   : MPEG-4 Visual\nFormat profile                           : Simple@L3\nFormat settings, BVOP                    : No\nFormat settings, QPel                    : No\nFormat settings, GMC                     : No warppoints\nFormat settings, Matrix                  : Default (H.263)\nCodec ID                                 : XVID\nCodec ID/Hint                            : XviD\nDuration                                 : 2h 6mn\nBit rate                                 : 1 572 Kbps\nWidth                                    : 1 024 pixels\nHeight                                   : 576 pixels\nDisplay aspect ratio                     : 16:9\nFrame rate                               : 25.000 fps\nColor space                              : YUV\nChroma subsampling                       : 4:2:0\nBit depth                                : 8 bits\nScan type                                : Progressive\nCompression mode                         : Lossy\nBits/(Pixel*Frame)                       : 0.107\nStream size                              : 1.38 GiB (85%)\nWriting library                          : XviD 1.2.1 (UTC 2008-12-04)\n\nAudio\nID                                       : 1\nFormat                                   : MPEG Audio\nFormat version                           : Version 1\nFormat profile                           : Layer 3\nMode                                     : Joint stereo\nMode extension                           : MS Stereo\nCodec ID                                 : 55\nCodec ID/Hint                            : MP3\nDuration                                 : 2h 6mn\nBit rate mode                            : Constant\nBit rate                                 : 256 Kbps\nChannel(s)                               : 2 channels\nSampling rate                            : 48.0 KHz\nCompression mode                         : Lossy\nStream size                              : 231 MiB (14%)\nAlignment                                : Aligned on interleaves\nInterleave, duration                     : 24 ms (0.60 video frame)\nWriting library                          : LAME3.98.4\n\n","torrent":{"xt":"urn:btih:60adc799426e257fb0820b517494e413fc203da8","amp;dn":"Days.Of.Grace.%5BDias.de.Gracia%5D.2011.DVDRip.XviD.HORiZON-ArtSubs","amp;tr":["udp%3A%2F%2Ftracker.openbittorrent.com%3A80","udp%3A%2F%2Fopen.demonii.com%3A1337","udp%3A%2F%2Ftracker.coppersurfer.tk%3A6969","udp%3A%2F%2Fexodus.desync.com%3A6969"],"infoHash":"60adc799426e257fb0820b517494e413fc203da8","infoHashBuffer":{"type":"Buffer","data":[96,173,199,153,66,110,37,127,176,130,11,81,116,148,228,19,252,32,61,168]},"announce":[],"urlList":[]}}